<svg fill="none" height="141" viewBox="0 0 113 141" width="113" xmlns="http://www.w3.org/2000/svg"><path d="m56.1498 51.1819c1.4801 2.6644 2.3235 5.6353 2.464 8.68.1406 3.0447-.4255 6.0806-1.6539 8.87-.1639.3784-.2023.7992-.1096 1.201.0927.4017.3115.7633.6245 1.0316s.7038.4293 1.115.4595c.4112.0301.8213-.0723 1.1702-.2921 4.07-2.61 8.6099-5 9.8199-17.2 13.41 1.78 23 19.87 28.33 32.29.2274.7395.6884 1.3854 1.3137 1.841s1.3814.6964 2.1554.6863c.773-.0102 1.523-.2706 2.136-.7425.613-.4718 1.057-1.1296 1.265-1.8748 1.07-4.18 2.11-9.54.39-13.76 5.56-4.59 8.08-14.83 6.88-20.93-5.73-29.11-34.7601-37.08-57.7101-34.59-6.27-12.21996-21.8799-19.00001-36.5799-16.240008-.3573.065333-.6888.230675-.9559.476808-.267.24613-.4588.563-.5531.91376-.0942.35076-.087.72103.0208 1.06787s.3117.65602.5881.8916c5.9904 5.19472 10.0907 12.22787 11.6601 19.99997-28.920034 16.18-38.28009 56-16.6801 83.9001-9.22999 10.59-11.00005 24.33-3.69005 31.62.22562.247.51822.424.84216.508.32395.084.66535.073.98291-.033.31758-.106.59758-.301.80618-.563.2085-.262.3366-.579.3687-.912 1.21-8.56 3.3001-9.13 9.4401-15.23.6945-.694 1.2456-1.518 1.6215-2.425.3759-.906.5693-1.878.5693-2.86s-.1934-1.954-.5693-2.861c-.3759-.906-.927-1.73-1.6215-2.424.6929.694 1.5159 1.245 2.4219 1.621.906.375 1.8773.569 2.8581.569.9809 0 1.9521-.194 2.8581-.569.906-.376 1.7289-.927 2.4218-1.621 6.19-6.19 8.7901-10 15.3401-10.33.228-.009.4484-.084.6343-.216s.3291-.316.412-.528c.0829-.213.1017-.445.0544-.668s-.1587-.427-.3206-.588c-5.72-5.7101-15.3901-5.8601-24.4101-1.2101-.43 2.0901.11 5.4801 1 9.3501-3-3.7-4.5-11.5801-4.5-11.5801-1.1231-5.4919-1.0206-11.1639.3003-16.6117 1.3209-5.4477 3.8276-10.5368 7.3413-14.9044 3.5138-4.3676 7.9481-7.9061 12.9865-10.363s10.5568-3.7718 16.1618-3.8509zm36.7601 1.88c2.29-2.3 5.75 1.17 3.46 3.46s-5.76-1.17-3.46-3.46z" fill="#ffec78"/></svg>
